# xmcd
#
# Track frame offsets:
#	182
#	19442
#	39050
#	55315
#	83605
#	103172
#	117702
#	133825
#	146650
#	173345
#
# Disc length: 2734 seconds
#
# Revision: 1
# Processed by: cddbd v1.5.2PL0 Copyright (c) Steve Scherf et al.
# Submitted via: audiograbber 1.83.01
#
DISCID=850aac0a
DTITLE=Various Artist - Southern Rock Hits
DYEAR=2001
DGENRE=Southern Rock
TTITLE0=Black Water
TTITLE1=Move It On Over
TTITLE2=Train, Train
TTITLE3=Lord Have Mercy On My Soul
TTITLE4=I Just Want To Make Love To You
TTITLE5=Crusin' Down The Highway
TTITLE6=It Takes Time
TTITLE7=No Broken Hearts
TTITLE8=Hold On Loosely
TTITLE9=Sweet Home Alabama
EXTD=
EXTT0=
EXTT1=
EXTT2=
EXTT3=
EXTT4=
EXTT5=
EXTT6=
EXTT7=
EXTT8=
EXTT9=
PLAYORDER=
